<mxfile host="app.diagrams.net" modified="2023-09-02T14:44:46.099Z" agent="Mozilla/5.0 (Windows NT 10.0; Win64; x64) AppleWebKit/537.36 (KHTML, like Gecko) Chrome/116.0.0.0 Safari/537.36" version="21.7.2" etag="anxnmiHLro5zEtjBJjcD" type="github">
  <diagram name="PÃ¡gina-1" id="nwNkwkktaryj9cEbw1MS">
    <mxGraphModel>
      <root>
        <mxCell id="0" />
        <mxCell id="1" parent="0" />
      </root>
    </mxGraphModel>
  </diagram>
</mxfile>
